<?xml version="1.0" standalone="no"?>
<!DOCTYPE svg PUBLIC "-//W3C//DTD SVG 20010904//EN"
 "http://www.w3.org/TR/2001/REC-SVG-20010904/DTD/svg10.dtd">
<svg version="1.0" xmlns="http://www.w3.org/2000/svg"
 width="512.000000pt" height="512.000000pt" viewBox="0 0 512.000000 512.000000"
 preserveAspectRatio="xMidYMid meet">

<g transform="translate(0.000000,512.000000) scale(0.100000,-0.100000)"
fill="#000000" stroke="none">
<path d="M2524 4741 c-65 -28 -84 -113 -35 -162 91 -91 230 36 144 131 -30 32
-75 45 -109 31z"/>
<path d="M2752 4608 c-21 -21 -13 -38 47 -93 123 -115 182 -302 148 -475 -22
-111 -60 -184 -137 -261 -85 -86 -151 -113 -260 -107 -96 6 -158 35 -231 108
-189 188 -185 535 7 727 56 56 62 71 42 91 -21 21 -37 13 -97 -47 -65 -65
-121 -166 -146 -266 -19 -76 -19 -214 0 -290 33 -125 115 -259 190 -308 35
-22 35 -22 35 -98 0 -148 -68 -225 -225 -254 -102 -18 -128 -26 -195 -60 -128
-64 -235 -178 -286 -305 -15 -38 -52 -197 -90 -390 -35 -179 -71 -343 -79
-365 -18 -50 -53 -83 -265 -257 -200 -164 -299 -266 -454 -465 -65 -84 -123
-156 -129 -160 -7 -5 -106 -10 -220 -13 -205 -5 -209 -5 -228 -29 -10 -13 -19
-37 -19 -54 0 -47 97 -138 179 -167 33 -13 61 -26 61 -30 0 -4 -9 -15 -19 -24
-69 -63 -89 -242 -38 -348 65 -134 289 -276 546 -346 92 -25 107 -26 346 -26
412 1 800 56 1243 176 81 22 83 22 145 5 426 -120 850 -180 1262 -181 239 0
254 1 346 26 255 69 480 212 545 344 35 72 42 177 17 248 -22 60 -45 78 -69
54 -16 -16 -16 -21 1 -74 53 -170 -40 -301 -307 -429 -132 -64 -263 -95 -423
-102 -335 -14 -938 62 -1265 159 l-44 14 89 27 c113 34 198 44 455 53 132 4
216 11 237 19 35 15 49 48 39 90 l-6 25 204 0 c197 0 205 1 211 20 15 47 1 50
-276 50 l-258 0 -143 87 c-96 58 -153 86 -173 86 -19 0 -80 -29 -170 -82 -166
-98 -167 -98 -163 -125 5 -38 41 -27 183 55 77 44 143 81 147 82 8 3 377 -216
378 -224 0 -3 -93 -9 -207 -13 -302 -10 -356 -18 -560 -82 -454 -141 -790
-206 -1223 -235 -242 -16 -428 -8 -552 24 -213 56 -432 190 -491 302 -16 30
-22 58 -22 115 0 64 4 82 29 128 16 28 44 63 61 77 29 22 39 24 102 18 56 -4
78 -2 114 14 36 16 530 410 837 667 79 66 153 152 200 233 17 29 77 166 133
305 55 139 104 257 107 262 14 24 78 -218 92 -349 13 -112 2 -248 -27 -365
-16 -66 -137 -391 -168 -449 -32 -63 -63 -69 -400 -77 -350 -8 -379 -11 -383
-41 -2 -13 4 -25 15 -31 18 -9 597 3 679 13 50 7 112 46 141 88 29 43 157 376
183 476 32 125 43 267 30 390 -12 119 -29 192 -86 364 -39 120 -58 147 -86
124 -8 -7 -68 -145 -132 -307 -65 -162 -132 -320 -148 -350 -42 -75 -116 -166
-174 -216 -222 -186 -823 -668 -843 -676 -39 -15 -250 6 -305 30 -44 20 -126
87 -126 103 0 5 87 9 193 9 168 0 197 2 227 19 22 11 78 74 155 172 160 207
255 303 477 486 197 162 232 197 255 251 8 19 45 189 84 380 45 227 78 365 95
401 36 80 99 156 169 206 82 59 140 82 249 101 105 18 150 39 201 91 56 57 77
108 83 191 l5 73 31 -8 c40 -10 194 -10 222 0 20 7 22 4 26 -65 6 -85 30 -139
85 -193 52 -50 98 -72 179 -85 147 -23 245 -70 336 -162 100 -102 117 -151
197 -548 38 -190 73 -354 77 -365 22 -58 72 -110 257 -263 226 -188 337 -302
495 -507 71 -93 119 -146 142 -157 30 -15 64 -18 228 -18 105 0 192 -4 192 -8
0 -4 -17 -24 -37 -44 -58 -57 -117 -77 -252 -90 -101 -9 -123 -9 -149 5 -17 8
-222 171 -456 362 -436 355 -486 403 -554 525 -16 30 -83 188 -148 350 -64
162 -124 300 -132 307 -30 25 -47 -3 -95 -154 -61 -194 -64 -210 -77 -333 -12
-123 -1 -269 29 -388 27 -104 156 -438 187 -483 13 -19 43 -46 67 -59 46 -26
93 -29 708 -45 l256 -7 79 -64 c114 -93 138 -100 287 -86 160 14 222 37 299
111 64 63 74 99 39 142 -19 24 -23 24 -228 29 -114 3 -213 9 -220 13 -7 4 -65
76 -130 160 -153 199 -256 304 -493 500 -107 89 -203 177 -214 195 -11 21 -45
165 -87 376 -40 201 -78 369 -93 407 -51 126 -158 240 -286 304 -67 34 -93 42
-195 60 -106 20 -160 54 -197 124 -23 44 -28 66 -28 125 0 68 2 74 26 87 47
25 136 132 171 205 109 229 65 504 -108 677 -68 68 -85 77 -107 55z m498
-2331 c107 -271 144 -346 206 -424 60 -77 72 -87 402 -355 155 -127 281 -232
279 -234 -2 -2 -178 1 -392 7 -435 12 -457 16 -490 80 -31 58 -152 383 -169
449 -46 188 -40 385 19 591 19 67 35 123 35 127 0 24 30 -43 110 -241z"/>
<path d="M2489 4381 c-39 -40 -40 -89 -1 -132 24 -26 36 -32 72 -32 36 0 48 6
72 32 39 43 38 92 -1 132 -23 23 -38 29 -71 29 -33 0 -48 -6 -71 -29z"/>
<path d="M1457 3553 c-16 -16 -3 -40 61 -111 37 -41 81 -91 97 -110 25 -28 35
-33 53 -27 39 12 22 47 -72 154 -85 96 -117 117 -139 94z"/>
<path d="M3525 3460 c-95 -108 -112 -143 -73 -155 18 -6 28 -1 53 27 16 19 61
69 98 111 72 80 82 110 37 115 -21 2 -41 -14 -115 -98z"/>
<path d="M2489 3491 c-40 -40 -40 -89 0 -133 24 -27 36 -33 71 -33 35 0 47 6
72 34 26 29 30 39 25 75 -12 84 -108 117 -168 57z"/>
<path d="M2511 2646 c-87 -48 -50 -186 49 -186 51 0 100 49 100 99 0 75 -83
124 -149 87z"/>
<path d="M1170 2629 c-96 -9 -126 -23 -114 -54 9 -23 29 -24 156 -14 167 13
170 14 166 47 -3 26 -6 27 -58 28 -30 1 -98 -2 -150 -7z"/>
<path d="M3747 2633 c-4 -3 -7 -17 -7 -29 0 -16 7 -25 23 -29 41 -9 268 -24
282 -19 20 8 25 30 12 48 -16 21 -292 47 -310 29z"/>
<path d="M2489 1951 c-40 -40 -40 -89 0 -133 24 -27 36 -33 71 -33 35 0 47 6
72 34 26 29 30 39 25 75 -12 84 -108 117 -168 57z"/>
<path d="M2533 1373 c-35 -7 -73 -59 -73 -100 0 -25 8 -43 29 -64 91 -90 231
37 144 130 -29 30 -61 41 -100 34z"/>
<path d="M2001 978 c-68 -36 -94 -64 -81 -88 14 -26 24 -25 84 9 l51 28 90
-51 90 -51 -506 -3 c-543 -2 -540 -2 -524 -52 6 -20 11 -20 565 -20 l560 0 15
24 c27 41 5 64 -132 144 -69 39 -135 74 -147 77 -11 3 -41 -5 -65 -17z"/>
<path d="M2489 841 c-40 -40 -40 -89 0 -133 24 -27 36 -33 71 -33 35 0 47 6
71 33 40 44 40 93 0 133 -41 41 -101 41 -142 0z"/>
</g>
</svg>
