<svg width="30" height="30" viewBox="0 0 30 30" fill="none" xmlns="http://www.w3.org/2000/svg">
<path d="M15.0075 15.3862C19.5212 15.36 21.9512 12.9225 22.035 8.29747C21.9575 3.84747 19.3962 1.27997 14.9925 1.25122C10.5412 1.27872 7.96497 3.96372 7.96497 8.29747C7.96497 12.7612 10.5425 15.3612 15.0075 15.3875V15.3862ZM14.9925 3.74997C18.0387 3.76997 19.4812 5.22872 19.535 8.29497C19.4762 11.4937 18.1187 12.8662 15.0075 12.885C11.8887 12.8662 10.53 11.5 10.465 8.31747C10.5275 5.17872 11.9287 3.76872 14.9925 3.74997Z" fill="white"/>
<path d="M14.9925 17.0762C8.3325 17.1187 4.74875 20.715 4.62875 27.4787C4.61625 28.1687 5.16625 28.7387 5.85625 28.7512C6.50125 28.7275 7.115 28.2137 7.12875 27.5237C7.22375 22.135 9.72875 19.61 14.9925 19.5775C20.2025 19.6112 22.78 22.21 22.8725 27.5225C22.885 28.205 23.4425 28.7512 24.1225 28.7512H24.145C24.835 28.7387 25.385 28.17 25.3737 27.48C25.2587 20.8137 21.5787 17.12 14.9937 17.0775L14.9925 17.0762Z" fill="white"/>
</svg>
