<svg width="37" height="30" viewBox="0 0 37 30" fill="none" xmlns="http://www.w3.org/2000/svg">
<path d="M11.3901 16.9462C11.2745 16.8742 11.4826 17.0451 11.3901 16.9462V16.9462ZM25.4974 17.0152C25.4079 17.1096 25.6084 16.9462 25.4974 17.0152V17.0152ZM36.9561 14.5943C35.5656 23.3778 27.6309 30 18.5 30C9.36906 30 1.43594 23.3763 0.0438731 14.5943C-0.134953 13.4603 0.238116 12.3474 1.0675 11.5389C1.89843 10.732 3.04076 10.369 4.20621 10.543C6.6065 10.903 8.85108 11.7129 10.8521 12.8754C11.2467 8.77906 12.9086 4.58527 15.4784 1.41593C16.2076 0.515974 17.3099 0 18.5031 0C19.6963 0 20.7985 0.515974 21.5277 1.41593C24.0945 4.58077 25.7548 8.77456 26.1479 12.8739C28.1474 11.7114 30.392 10.9015 32.7922 10.5415C33.9577 10.3675 35.1016 10.7305 35.9325 11.5374C36.7619 12.3459 37.135 13.4588 36.9561 14.5913V14.5943ZM16.8721 26.9162C16.4435 23.0224 14.3423 19.4285 11.3901 16.9462C9.29506 15.2737 6.54637 13.9298 3.73756 13.5083C3.70519 13.5038 3.42462 13.5083 3.24888 13.6613C3.16871 13.7303 3.05309 13.8938 3.09163 14.1383C4.16922 20.9435 9.95179 26.1962 16.8721 26.9162ZM18.5 21.3349C19.5745 18.9351 21.1701 16.7857 23.1526 15.0367C23.2389 10.9465 21.7189 6.49468 19.1089 3.27434C18.9085 3.02835 18.6202 3.00135 18.5046 3.00135C18.389 3.00135 18.1007 3.02835 17.9003 3.27434C15.2857 6.49918 13.7626 10.9525 13.8474 15.0367C15.8299 16.7857 17.4255 18.9351 18.5 21.3349ZM33.7511 13.6613C33.56 13.4633 33.2948 13.5038 33.2609 13.5083C30.449 13.9298 27.5939 15.3382 25.4974 17.0137C22.5436 19.496 20.5565 23.0208 20.1279 26.9162C27.0482 26.1962 32.8308 20.9435 33.9084 14.1368C33.9469 13.8923 33.8236 13.7363 33.7511 13.6613Z" fill="#FFF8F8"/>
</svg>
