<svg width="28" height="31" viewBox="0 0 28 31" fill="none" xmlns="http://www.w3.org/2000/svg">
<path d="M27.764 17.6418L25.3183 8.81298C24.6014 6.2265 23.0435 3.95466 20.892 2.35858C18.7406 0.7625 16.1191 -0.0662243 13.4444 0.00413781C10.7696 0.0744999 8.19508 1.03991 6.12995 2.74691C4.06483 4.45392 2.62764 6.80455 2.04684 9.42516L0.153361 17.9686C-0.055791 18.9126 -0.0509554 19.8917 0.167511 20.8336C0.385977 21.7755 0.812494 22.6561 1.41557 23.4104C2.01865 24.1648 2.7829 24.7736 3.65188 25.192C4.52086 25.6103 5.47239 25.8275 6.43623 25.8275H7.87018C8.16561 27.2872 8.95495 28.5997 10.1044 29.5423C11.2539 30.485 12.6929 31 14.1775 31C15.6621 31 17.1011 30.485 18.2506 29.5423C19.4001 28.5997 20.1894 27.2872 20.4848 25.8275H21.5635C22.5557 25.8275 23.5345 25.5974 24.4234 25.1551C25.3123 24.7128 26.0872 24.0703 26.6877 23.2778C27.2881 22.4853 27.6978 21.5642 27.8847 20.5865C28.0717 19.6088 28.0295 18.601 27.764 17.6418ZM14.1775 28.4105C13.3817 28.4072 12.6063 28.1572 11.9575 27.6949C11.3086 27.2325 10.818 26.5803 10.5527 25.8275H17.8023C17.537 26.5803 17.0464 27.2325 16.3976 27.6949C15.7487 28.1572 14.9733 28.4072 14.1775 28.4105ZM24.6374 21.714C24.2787 22.1914 23.814 22.5783 23.2801 22.844C22.7463 23.1097 22.1581 23.2468 21.5622 23.2444H6.43623C5.85799 23.2443 5.28716 23.1139 4.76587 22.8629C4.24458 22.6118 3.78613 22.2465 3.42437 21.7939C3.0626 21.3413 2.80676 20.813 2.67573 20.2479C2.54469 19.6828 2.5418 19.0954 2.66728 18.5291L4.55948 9.98439C5.0156 7.92598 6.14443 6.07962 7.7665 4.73882C9.38858 3.39803 11.4108 2.63975 13.5117 2.58452C15.6126 2.5293 17.6717 3.18031 19.3615 4.43405C21.0513 5.68779 22.2749 7.47232 22.8378 9.50395L25.2835 18.3328C25.4451 18.908 25.4709 19.5131 25.3587 20.1C25.2465 20.6869 24.9996 21.2395 24.6374 21.714Z" fill="white"/>
</svg>
